<svg xmlns="http://www.w3.org/2000/svg" version="1.1" xmlns:xlink="http://www.w3.org/1999/xlink" xmlns:svgjs="http://svgjs.dev/svgjs" width="1500" height="1687" viewBox="0 0 1500 1687"><g transform="matrix(1,0,0,1,0.00011015625000254659,0)"><svg viewBox="0 0 320 360" data-background-color="#ffffff" preserveAspectRatio="xMidYMid meet" height="1687" width="1500" xmlns="http://www.w3.org/2000/svg" xmlns:xlink="http://www.w3.org/1999/xlink"><g id="tight-bounds" transform="matrix(1,0,0,1,0.000023499999997511622,0)"><svg viewBox="0 0 320 360" height="360" width="320"><g><svg></svg></g><g><svg viewBox="0 0 320 360" height="360" width="320"><g><path transform="translate(-74.99272,-51.79039) scale(4.65793,4.65793)" d="M20.6 59.9l0.8 1-0.4-1.3c-0.1-0.6-0.8 0.1-0.4 0.3M21.5 59.3c0.3 0.5 0.6 1 0.6 1.5 0 0.7 0.6 1 1.1 1.2-0.7-0.8-1.1-3-1.7-2.7M59.9 16.9c1.7 0 3.3-0.2 5.1 0.2 4.4 1.1 8.1 3.3 10.6 6.4l7 11.2c0.3 2.8 0.9 5.9 0.8 9.3 0.7 0 0.6-1 1.4-1.2-0.8 2-1.2 4.5-1.4 7.4-0.5-1.6 0-4 0.1-5.3-0.7 1.1-1.1 0.3-1.1-0.2 0.1-0.8-0.3-0.7-0.6-1-1.1-1-1.8-2.1-2.6-3.8 0.5-1.3 0.6-3.2-1-4.2-0.5-0.3-1.1-0.8-1.4-1.6-0.4-1.1-1.1-2.4-0.9-4.1 0.1-0.5-1.5 1.1-2.4 0.4-3.9-2.7-7.8-5.8-12.5-8.4-2.5 0-4.3-0.9-5.2-2-0.8-1-0.2-2.3 1-2.4 0.7 0 1.5-0.2 2.1 0.2 0.1-0.4 0.5-0.9 1-0.9M50 14.6l0.2 0.1c1 0.2 1.5 1.6 2.6 1.1 0 0.7 0.1 1.4-0.1 1.9-0.3 0.8-1.2 0.8-1.9 0.8-6.7-0.4-10.6 2.4-14.7 4.8-1.1 0.7-2.3 1.2-3.2 2.1-4.3 4-9 7.7-10.1 15.1l-0.9 8.2c-0.1 0.9-1.1 1.8-0.9 2.9l0.7 4.9c-0.7-0.7-1.1 0.2-0.9 0.6 0.1 0.3 0.5 1.3 1.1 0.4 0.8 1.5 1.6 4.4 2.7 5.7 3.4 4 7.8 7.6 11.4 11.2 0.9-0.2 1.6-0.2 1.8-0.8 0.3 0.6-0.3 1.2-0.8 1.3 1.6 1 3.4 1.9 5.8 2.1 3.1 0.2 6 0.7 8.7 1.4 1.4-0.4 2.8-0.6 4.3-0.7 0.5 0 0.8-0.8 1.4-1l0.1-1c0.6 0.9 0.5-0.3 0.1-0.9 0.7 0.6 0.9 1.1 1.2 1.5 0-0.3 0.8-1.4 0.8-0.1l0.2-1.3c0.3-0.2 0.4 1.1 0.7 0.2 0.3-0.9 0.9-0.2 1.5-0.5-0.2 0.4-0.1 1.2 0.6 0.7l0.8-0.7c0.5 1.2 1.3 0.7 1.7 0.5 4.4-2.8 8.8-6.1 13-9.4l-0.1 1.3 0.5-1.6c0.5 0.5 0.9 0.1 1.1-0.2 0.6-1 1.4-2 2.7-2.9-1.6 4.3-3.5 7.7-5.9 10.5l-1 1.2c0 0.7-0.2 1.6-1 1.7-0.4 0.1-1.2-0.2-1.8 0.4-0.3 0.4 0.7 1.2-0.1 0.6-0.7-0.5-1.4 0-2.2 0.2-0.6 0.2 0.4 0.8 0.6 1.2 0.2 0.4 0.4 0.8 0.3 1.3l-1.1-1.2c-1.3 0.7-2.1 2-3.2 3-0.5 0.4-0.3 1.1-0.3 1.7-0.7 0-1.5-0.2-1.9 0.2-0.3 0.4-0.2 1-0.2 1.6-1-0.1-1.1-1.6-2-1.3-0.9 0.2-1.9 0.3-2.7 0.8 0.6 1.2-1 0.5-0.8 0.7-1.5-0.9-2.8-1.6-4.4-1-3.4-1.1-7.6-0.6-10.7-0.2 0-0.5 0.1-1-0.1-1.1-0.2 0.5-0.8 0.3-0.7 0.3-1.9-1.3-3.8-2.1-5.8-3.2-1.8 0.2-3.5-0.7-4-1.2-1.4-1.3-3-0.6-4.3-0.9-2.8-0.7-3.8-3.6-4.1-5.6-0.2-1-1-1.4-1.3-1.3-1.3-4.2-3.3-8-4.9-11.9-0.4-1-0.3-2-0.3-3.1 0.5 0.2 1 0.1 0.9-0.6-0.5-3.3-1.7-5.8-3-8.2 0.7-3.4 0.8-7.4 2.4-10.4 1.4-2.7 4-4.1 5.8-6.4 0.6-0.8 0.6-1.9 1.2-2.6 2-2 4-4.1 6.2-5.9 1-0.8 2.2 0 3.7-0.3 0.5-1.8 2.5-3.4 4.4-2.9 0.8 0.2 2.4-1.9 2.9-2.1 0.8-0.3 0.4 0.8 0.4 1.5 1.9-1.5 4.5-2.3 6.9-3.2" fill="#2257bf" fill-rule="nonzero" stroke="none" stroke-width="1" stroke-linecap="butt" stroke-linejoin="miter" stroke-miterlimit="10" stroke-dasharray="" stroke-dashoffset="0" font-family="none" font-weight="none" font-size="none" text-anchor="none" style="mix-blend-mode: normal" data-fill-palette-color="tertiary"></path></g><g transform="matrix(1,0,0,1,79.24462325584003,90)"><svg viewBox="0 0 161.51075348831995 180" height="180" width="161.51075348831995"><g><svg viewBox="0 0 178.88760000000002 199.36609361635234" height="180" width="161.51075348831995"><g><svg viewBox="0 0 178.88760000000002 199.36609361635234" height="199.36609361635234" width="178.88760000000002"><g id="textblocktransform"><svg viewBox="0 0 178.88760000000002 199.36609361635234" height="199.36609361635234" width="178.88760000000002" id="textblock"><g><svg viewBox="0 0 178.88760000000002 178.88760000000002" height="178.88760000000002" width="178.88760000000002"><g transform="matrix(1,0,0,1,57.82064124245334,57.82064124245334)"><svg viewBox="0 0 63.24631751509334 63.24631751509334" height="63.24631751509334" width="63.24631751509334"><g id="icon-0"><svg xmlns="http://www.w3.org/2000/svg" xmlns:xlink="http://www.w3.org/1999/xlink" version="1.1" x="0" y="0" viewBox="10 10 80 80" style="enable-background:new 0 0 100 100;" xml:space="preserve" height="63.24631751509334" width="63.24631751509334" class="icon-xg-0" data-fill-palette-color="accent" id="xg-0"><path d="M81.373 10l-0.131 0C81.241 10 81.241 10 81.241 10c0 0-0.001 0-0.001 0L25.927 10.029c-5.466 0.036-9.912 4.523-9.912 10.004v50.177H11c-0.553 0-1 0.447-1 1v8.75C10 85.496 14.492 90 20.014 90h44.362c0 0 0 0 0 0 0.012 0 0.025 0 0.036-0.001l0.772-0.028c5.466-0.036 9.913-4.523 9.913-10.004V27.051H89c0.553 0 1-0.447 1-1v-7.403C90 13.88 86.131 10 81.373 10zM20.014 88C15.595 88 12 84.394 12 79.96v-7.75h42.362v7.75c0 3.285 1.582 6.207 4.023 8.04H20.014zM73.097 79.967c0 4.385-3.556 7.976-7.956 8.005l-0.769 0.028c-4.417-0.002-8.01-3.608-8.01-8.04v-8.75c0-0.553-0.447-1-1-1H18.015V20.033c0-4.385 3.556-7.976 7.92-8.004l49.974-0.026c-1.719 1.495-2.812 3.691-2.812 6.143V79.967zM88 25.051H75.097v-6.905c0-3.388 2.756-6.145 6.143-6.146L81.374 12C85.027 12 88 14.982 88 18.648V25.051z" fill="#2257bf" data-fill-palette-color="accent"></path><path d="M45.563 32.219c2.559 0 5.006 0.785 7.077 2.269 0.45 0.323 1.073 0.219 1.395-0.229 0.322-0.449 0.219-1.074-0.229-1.396-2.413-1.73-5.263-2.645-8.243-2.644-0.005 0-0.01 0-0.014 0-3.781 0.004-7.335 1.48-10.007 4.157-2.671 2.678-4.14 6.234-4.136 10.016 0.001 0.552 0.448 0.999 1 0.999h0.001c0.553-0.001 1-0.449 0.999-1.001-0.004-3.247 1.258-6.302 3.552-8.601s5.346-3.566 8.593-3.57C45.556 32.219 45.56 32.219 45.563 32.219z" fill="#2257bf" data-fill-palette-color="accent"></path><path d="M44.886 62.699h0.001c5.021-0.005 9.741-1.966 13.289-5.52 3.547-3.556 5.498-8.279 5.493-13.301-0.005-4.731-1.773-9.251-4.98-12.726-0.375-0.406-1.01-0.431-1.413-0.057-0.406 0.375-0.432 1.008-0.057 1.413 2.865 3.105 4.445 7.145 4.45 11.372 0.005 4.487-1.739 8.709-4.909 11.886s-7.388 4.929-11.875 4.933c-0.553 0.001-1 0.448-0.999 1.001C43.887 62.252 44.334 62.699 44.886 62.699z" fill="#2257bf" data-fill-palette-color="accent"></path><path d="M44.843 22.177h0.001c0.01 0 0.02 0 0.029 0 2.863 0 5.651 0.537 8.286 1.596 0.122 0.049 0.248 0.072 0.373 0.073 0.396 0 0.771-0.236 0.928-0.627 0.206-0.513-0.042-1.095-0.555-1.301-2.873-1.155-5.911-1.741-9.032-1.741-0.614-0.03-1.032 0.439-1.03 1.001C43.844 21.729 44.291 22.177 44.843 22.177z" fill="#2257bf" data-fill-palette-color="accent"></path><path d="M31.954 63.702c-2.501-1.417-4.668-3.267-6.44-5.497-0.345-0.434-0.974-0.505-1.406-0.161-0.433 0.344-0.505 0.973-0.161 1.405 1.934 2.433 4.296 4.449 7.021 5.993 0.156 0.088 0.325 0.13 0.492 0.13 0.349 0 0.687-0.183 0.871-0.507C32.604 64.585 32.435 63.975 31.954 63.702z" fill="#2257bf" data-fill-palette-color="accent"></path><path d="M59.359 24.986c-0.443-0.332-1.069-0.24-1.399 0.202-0.331 0.442-0.24 1.069 0.202 1.4 5.673 4.239 8.931 10.727 8.938 17.798 0.002 1.714-0.191 3.42-0.575 5.069-0.124 0.538 0.211 1.075 0.749 1.2 0.076 0.018 0.151 0.025 0.227 0.026 0.455 0 0.866-0.313 0.974-0.775 0.417-1.798 0.627-3.656 0.625-5.522C69.092 36.677 65.542 29.606 59.359 24.986z" fill="#2257bf" data-fill-palette-color="accent"></path><path d="M66.336 53.361c-0.503-0.235-1.097-0.019-1.33 0.481-0.429 0.912-0.921 1.801-1.465 2.639-4.117 6.354-11.09 10.153-18.65 10.162-0.553 0.001-1 0.449-0.999 1.001s0.448 0.999 1 0.999h0.001c8.241-0.009 15.84-4.148 20.326-11.074 0.594-0.915 1.131-1.884 1.597-2.878C67.051 54.191 66.836 53.596 66.336 53.361z" fill="#2257bf" data-fill-palette-color="accent"></path><path d="M27.181 25.73l-0.745 4.31c-0.064 0.374 0.089 0.753 0.395 0.978s0.715 0.255 1.053 0.079l3.909-2.04 0.584 0.304c-4.451 3.705-7.074 9.248-7.068 15.069 0.003 2.676 0.537 5.27 1.586 7.71 0.163 0.378 0.532 0.604 0.919 0.604 0.133 0 0.267-0.026 0.396-0.081 0.507-0.219 0.741-0.807 0.523-1.314-0.942-2.189-1.422-4.519-1.424-6.921-0.005-5.509 2.615-10.738 7.013-14.051l1.38 0.72c0.146 0.076 0.305 0.113 0.463 0.113 0.208 0 0.415-0.064 0.59-0.192 0.307-0.225 0.46-0.604 0.395-0.978l-0.223-1.293c2.467-1.254 5.131-1.893 7.922-1.895 0.553-0.001 1-0.448 0.999-1.001-0.001-0.552-0.448-0.999-1-0.999h-0.001c-2.902 0.003-5.68 0.63-8.274 1.848l-0.168-0.97 3.157-3.052c0.274-0.266 0.374-0.663 0.256-1.027-0.117-0.363-0.431-0.628-0.808-0.682l-4.368-0.63-1.954-3.925c-0.338-0.68-1.453-0.68-1.791 0l-1.952 3.925-4.369 0.63c-0.378 0.055-0.691 0.319-0.808 0.682-0.118 0.363-0.019 0.761 0.255 1.027L27.181 25.73zM29.75 22.244c0.325-0.047 0.606-0.251 0.753-0.545l1.29-2.595 1.291 2.595c0.146 0.294 0.428 0.497 0.753 0.545l2.869 0.413-2.071 2.004c-0.238 0.23-0.347 0.563-0.29 0.889l0.49 2.838-2.579-1.346c-0.146-0.075-0.304-0.113-0.463-0.113s-0.317 0.038-0.463 0.113l-2.579 1.346 0.49-2.838c0.057-0.326-0.052-0.658-0.29-0.889l-2.071-2.004L29.75 22.244z" fill="#2257bf" data-fill-palette-color="accent"></path><path d="M51.27 53.705c0.146 0.076 0.305 0.113 0.462 0.113 0.208 0 0.415-0.064 0.59-0.192 0.307-0.225 0.46-0.604 0.396-0.978l-0.862-4.983 3.652-3.53c0.274-0.266 0.374-0.663 0.256-1.027-0.117-0.363-0.431-0.628-0.809-0.682l-5.052-0.728-2.257-4.539c-0.338-0.68-1.453-0.68-1.792 0l-2.257 4.539-5.052 0.728c-0.378 0.055-0.691 0.319-0.809 0.682-0.118 0.363-0.019 0.761 0.256 1.027l3.652 3.53-0.862 4.983c-0.064 0.374 0.089 0.753 0.396 0.978 0.308 0.225 0.715 0.255 1.052 0.079L46.75 51.348 51.27 53.705zM43.097 50.997l0.607-3.513c0.057-0.326-0.053-0.658-0.29-0.888l-2.565-2.481 3.552-0.511c0.325-0.047 0.606-0.251 0.753-0.545l1.596-3.209 1.596 3.209c0.146 0.294 0.428 0.498 0.753 0.545l3.552 0.511-2.565 2.481c-0.237 0.23-0.347 0.563-0.29 0.888l0.607 3.513-3.19-1.664c-0.146-0.075-0.304-0.113-0.463-0.113s-0.317 0.038-0.463 0.113L43.097 50.997z" fill="#2257bf" data-fill-palette-color="accent"></path></svg></g></svg></g><g id="text-0"><path d="M16.438 67.197l-0.486 1.585-12.565-3.86 0.487-1.584 1.308 0.402c-0.308-0.54-0.525-1.105-0.652-1.697-0.127-0.592-0.099-1.186 0.085-1.783v0c0.129-0.42 0.343-0.742 0.641-0.966 0.299-0.224 0.667-0.348 1.104-0.371 0.444-0.021 0.949 0.055 1.513 0.228v0l10.085 3.097-0.486 1.585-9.731-2.989c-0.656-0.201-1.149-0.245-1.478-0.131-0.321 0.11-0.544 0.368-0.669 0.774v0c-0.111 0.361-0.116 0.765-0.016 1.212 0.102 0.44 0.275 0.881 0.519 1.322v0z" fill="#2257bf" data-fill-palette-color="primary"></path><path d="M24.531 49.55v0c-0.454 0.768-0.976 1.272-1.565 1.514-0.595 0.238-1.263 0.262-2.003 0.071-0.74-0.191-1.568-0.557-2.484-1.098v0l-3.127-1.849c-0.915-0.541-1.635-1.091-2.159-1.647-0.524-0.557-0.822-1.152-0.894-1.785-0.072-0.633 0.119-1.333 0.573-2.1v0c0.472-0.797 1-1.314 1.586-1.55 0.586-0.236 1.249-0.258 1.989-0.067 0.74 0.191 1.568 0.557 2.483 1.098v0l3.128 1.849c0.915 0.541 1.635 1.091 2.158 1.648 0.524 0.557 0.826 1.15 0.908 1.78 0.076 0.627-0.122 1.339-0.593 2.136zM23.45 48.911v0c0.293-0.496 0.378-0.936 0.255-1.32-0.124-0.384-0.409-0.744-0.856-1.08-0.445-0.327-0.968-0.668-1.571-1.025v0l-3.287-1.943c-0.614-0.363-1.166-0.657-1.654-0.883-0.492-0.219-0.942-0.294-1.35-0.224-0.402 0.073-0.75 0.358-1.043 0.854v0c-0.29 0.49-0.368 0.926-0.236 1.307 0.139 0.385 0.425 0.738 0.858 1.058 0.429 0.326 0.951 0.67 1.565 1.033v0l3.287 1.944c0.602 0.356 1.156 0.648 1.66 0.873 0.506 0.236 0.956 0.318 1.348 0.248 0.393-0.071 0.734-0.351 1.024-0.842z" fill="#2257bf" data-fill-palette-color="primary"></path><path d="M35.261 35.656v0c-0.438 0.464-0.862 0.733-1.273 0.808-0.415 0.08-0.825 0.019-1.228-0.183-0.399-0.207-0.803-0.504-1.212-0.89v0l-6.773-6.395-1.11 1.175-0.8-0.756 1.109-1.175-2.956-2.791 1.138-1.205 2.956 2.791 1.498-1.586 0.801 0.756-1.498 1.586 6.66 6.289c0.459 0.433 0.835 0.69 1.129 0.769 0.294 0.079 0.605-0.056 0.935-0.406v0c0.094-0.1 0.193-0.224 0.295-0.372 0.103-0.139 0.196-0.273 0.28-0.401v0l0.92 0.869c-0.121 0.198-0.256 0.391-0.406 0.58-0.155 0.194-0.31 0.373-0.465 0.537z" fill="#2257bf" data-fill-palette-color="primary"></path><path d="M47.088 25.982v0c-0.672 0.464-1.318 0.711-1.94 0.741-0.612 0.031-1.237-0.196-1.873-0.682-0.638-0.476-1.314-1.231-2.028-2.264v0l-1.891-2.734c-0.742-1.072-1.214-1.985-1.417-2.737-0.209-0.748-0.181-1.402 0.083-1.96 0.259-0.554 0.719-1.06 1.379-1.517v0c0.762-0.527 1.454-0.768 2.078-0.723 0.618 0.049 1.232 0.345 1.842 0.891 0.605 0.549 1.261 1.335 1.968 2.356v0l0.673 0.973-4.369 3.021 1.306 1.888c0.484 0.7 0.917 1.218 1.3 1.554 0.388 0.332 0.757 0.503 1.105 0.512 0.352 0.015 0.709-0.102 1.07-0.352v0c0.271-0.187 0.484-0.41 0.64-0.668 0.152-0.263 0.187-0.592 0.106-0.986-0.081-0.395-0.317-0.874-0.707-1.439v0l-0.515-0.745 1.329-0.919 0.416 0.601c0.679 0.982 1.02 1.91 1.023 2.784 0.009 0.87-0.517 1.671-1.578 2.405zM40.546 19.832l0.509 0.736 3.022-2.09-0.62-0.897c-0.398-0.576-0.769-1.045-1.112-1.409-0.343-0.363-0.69-0.582-1.042-0.656-0.361-0.076-0.764 0.041-1.21 0.349v0c-0.372 0.258-0.618 0.548-0.736 0.872-0.118 0.324-0.086 0.727 0.097 1.209 0.193 0.484 0.557 1.113 1.092 1.886z" fill="#2257bf" data-fill-palette-color="primary"></path><path d="M73.811 14.593l-1.524 0.251-2.143-12.968 1.523-0.251 0.22 1.33c0.349-0.579 0.763-1.044 1.241-1.394 0.478-0.35 0.994-0.571 1.549-0.663v0c0.447-0.074 0.883-0.021 1.31 0.159 0.418 0.174 0.762 0.57 1.03 1.186v0c0.362-0.63 0.787-1.132 1.275-1.504 0.495-0.374 1.04-0.61 1.635-0.709v0c0.372-0.062 0.743-0.029 1.112 0.098 0.368 0.12 0.692 0.379 0.973 0.778 0.276 0.406 0.475 0.982 0.599 1.727v0l1.69 10.226-1.524 0.252-1.683-10.186c-0.125-0.758-0.331-1.242-0.615-1.452-0.291-0.202-0.622-0.273-0.995-0.212v0c-0.42 0.069-0.82 0.257-1.201 0.564-0.373 0.312-0.714 0.706-1.025 1.181v0c0.033 0.071 0.06 0.15 0.081 0.237 0.02 0.08 0.038 0.164 0.052 0.253v0l1.69 10.226-1.554 0.256-1.683-10.185c-0.125-0.758-0.331-1.242-0.616-1.453-0.284-0.203-0.616-0.274-0.994-0.211v0c-0.399 0.066-0.789 0.252-1.17 0.559-0.379 0.313-0.722 0.7-1.029 1.161v0z" fill="#2257bf" data-fill-palette-color="primary"></path><path d="M97.407 13.518v0c-0.532-0.056-0.979-0.237-1.34-0.545-0.369-0.301-0.638-0.688-0.81-1.161-0.172-0.467-0.23-0.963-0.175-1.488v0c0.07-0.662 0.225-1.218 0.465-1.669 0.24-0.444 0.584-0.829 1.032-1.154 0.455-0.325 1.036-0.629 1.742-0.915 0.713-0.284 1.573-0.594 2.581-0.929v0l0.098-0.932c0.084-0.798 0.102-1.431 0.055-1.898-0.054-0.468-0.187-0.813-0.399-1.035-0.211-0.222-0.528-0.356-0.951-0.401v0c-0.348-0.037-0.666-0.001-0.953 0.107-0.28 0.109-0.523 0.314-0.727 0.617-0.198 0.31-0.327 0.752-0.388 1.326v0l-0.047 0.45-1.626-0.191c0.153-1.329 0.54-2.286 1.161-2.869 0.613-0.577 1.547-0.8 2.802-0.668v0c1.174 0.123 1.963 0.558 2.368 1.304 0.397 0.752 0.518 1.866 0.363 3.339v0l-0.668 6.357c-0.024 0.225-0.047 0.516-0.071 0.872-0.017 0.357-0.035 0.693-0.054 1.009-0.02 0.322-0.032 0.566-0.035 0.731v0l-1.464-0.154c-0.004-0.29-0.018-0.616-0.042-0.977-0.017-0.361-0.025-0.648-0.024-0.861v0c-0.233 0.514-0.603 0.947-1.109 1.301-0.5 0.361-1.095 0.506-1.784 0.434zM98.066 12.169v0c0.334 0.035 0.647-0.015 0.937-0.15 0.284-0.143 0.544-0.319 0.78-0.529 0.236-0.21 0.428-0.428 0.575-0.653v0l0.428-4.074c-0.683 0.266-1.268 0.509-1.753 0.726-0.493 0.224-0.896 0.451-1.21 0.68-0.313 0.222-0.555 0.49-0.726 0.804-0.163 0.307-0.268 0.679-0.313 1.116v0c-0.073 0.696 0.025 1.207 0.294 1.531 0.269 0.325 0.599 0.508 0.988 0.549z" fill="#2257bf" data-fill-palette-color="primary"></path><path d="M114.046 16.966l-1.565-0.545 4.322-12.413 1.565 0.545-0.45 1.293c0.551-0.288 1.124-0.484 1.72-0.589 0.596-0.105 1.189-0.055 1.779 0.15v0c0.415 0.144 0.729 0.37 0.941 0.677 0.213 0.307 0.323 0.679 0.33 1.118 0.005 0.445-0.09 0.946-0.283 1.503v0l-3.47 9.963-1.565-0.545 3.348-9.613c0.226-0.648 0.288-1.139 0.186-1.472-0.098-0.325-0.347-0.557-0.75-0.697v0c-0.356-0.124-0.76-0.145-1.21-0.062-0.444 0.085-0.891 0.242-1.341 0.471v0z" fill="#2257bf" data-fill-palette-color="primary"></path><path d="M130.565 25.185v0c-0.45-0.289-0.767-0.652-0.951-1.089-0.194-0.435-0.261-0.902-0.201-1.402 0.056-0.494 0.228-0.963 0.513-1.407v0c0.36-0.56 0.749-0.987 1.167-1.282 0.414-0.289 0.894-0.477 1.441-0.566 0.552-0.085 1.208-0.096 1.966-0.033 0.764 0.067 1.672 0.178 2.724 0.331v0l0.506-0.787c0.434-0.675 0.735-1.232 0.903-1.672 0.162-0.442 0.199-0.81 0.11-1.103-0.089-0.294-0.312-0.555-0.67-0.786v0c-0.294-0.189-0.594-0.3-0.899-0.333-0.299-0.029-0.608 0.045-0.927 0.224-0.317 0.188-0.631 0.524-0.942 1.009v0l-0.245 0.381-1.366-0.902c0.735-1.118 1.511-1.798 2.327-2.04 0.807-0.24 1.741-0.019 2.804 0.664v0c0.993 0.638 1.502 1.382 1.527 2.23 0.016 0.851-0.377 1.899-1.178 3.146v0l-3.456 5.376c-0.122 0.19-0.274 0.44-0.456 0.747-0.176 0.311-0.343 0.603-0.502 0.877-0.163 0.279-0.283 0.491-0.36 0.637v0l-1.238-0.796c0.127-0.261 0.261-0.558 0.402-0.892 0.147-0.33 0.269-0.59 0.366-0.78v0c-0.439 0.354-0.965 0.575-1.576 0.663-0.609 0.098-1.206-0.041-1.789-0.415zM131.761 24.277v0c0.283 0.182 0.584 0.278 0.904 0.287 0.318 0 0.629-0.04 0.934-0.121 0.305-0.081 0.575-0.189 0.809-0.325v0l2.215-3.445c-0.73-0.07-1.361-0.116-1.893-0.14-0.541-0.021-1.003 0-1.386 0.063-0.38 0.058-0.716 0.188-1.01 0.391-0.284 0.201-0.545 0.486-0.782 0.855v0c-0.378 0.589-0.52 1.089-0.426 1.5 0.094 0.411 0.306 0.723 0.635 0.935z" fill="#2257bf" data-fill-palette-color="primary"></path><path d="M141.748 39.882v0c-0.591-0.632-1.039-1.236-1.345-1.815-0.316-0.579-0.46-1.115-0.434-1.609 0.031-0.489 0.244-0.919 0.641-1.29v0c0.321-0.3 0.684-0.499 1.09-0.597 0.411-0.093 0.834-0.113 1.269-0.059 0.435 0.053 0.838 0.142 1.207 0.266v0c-0.247-0.455-0.36-0.852-0.338-1.191 0.016-0.334 0.147-0.616 0.392-0.846v0c0.331-0.309 0.725-0.485 1.183-0.528 0.458-0.043 1.001-0.03 1.63 0.04v0c-0.107-0.727 0.001-1.41 0.324-2.05 0.313-0.64 0.8-1.269 1.461-1.888v0c0.621-0.581 1.274-1.008 1.958-1.281 0.684-0.283 1.364-0.369 2.041-0.26 0.666 0.11 1.29 0.475 1.871 1.097v0c0.53 0.566 0.829 1.118 0.898 1.654 0.069 0.536 0.013 1.044-0.167 1.524v0c0.249-0.045 0.601-0.055 1.057-0.03 0.455 0.035 0.867 0.138 1.234 0.311v0l0.315 0.17-0.54 1.126c-0.194-0.147-0.437-0.282-0.729-0.403-0.292-0.121-0.578-0.221-0.857-0.299-0.284-0.082-0.52-0.115-0.71-0.096v0c-0.13 0.263-0.338 0.583-0.622 0.962-0.29 0.384-0.55 0.683-0.781 0.899v0c-0.632 0.591-1.283 1.04-1.953 1.347-0.666 0.303-1.324 0.402-1.976 0.297-0.652-0.114-1.282-0.497-1.891-1.148v0c-0.155-0.165-0.301-0.352-0.44-0.561-0.138-0.218-0.246-0.404-0.324-0.557v0c-0.316 0.004-0.634 0.025-0.956 0.063-0.322 0.047-0.571 0.153-0.746 0.317v0c-0.155 0.145-0.217 0.32-0.185 0.525 0.042 0.205 0.174 0.462 0.396 0.771v0l1.194 1.744c0.616 0.88 0.941 1.689 0.975 2.428 0.033 0.749-0.284 1.435-0.95 2.059v0c-0.496 0.464-1.036 0.715-1.62 0.753-0.589 0.043-1.184-0.096-1.785-0.416-0.601-0.321-1.197-0.798-1.787-1.429zM142.782 39.013v0c0.6 0.642 1.183 1.074 1.748 1.297 0.566 0.213 1.064 0.118 1.495-0.285v0c0.221-0.206 0.369-0.434 0.445-0.684 0.086-0.25 0.065-0.559-0.063-0.927-0.128-0.368-0.389-0.838-0.783-1.41v0l-0.981-1.38c-0.265-0.062-0.567-0.114-0.905-0.154-0.334-0.035-0.664-0.032-0.991 0.01-0.332 0.047-0.625 0.19-0.881 0.43v0c-0.366 0.342-0.47 0.768-0.312 1.278 0.158 0.51 0.567 1.119 1.228 1.825zM148.855 33.362v0c0.333 0.356 0.67 0.566 1.013 0.632 0.338 0.07 0.678 0.042 1.023-0.083 0.344-0.124 0.68-0.307 1.008-0.548 0.338-0.241 0.65-0.495 0.936-0.763v0c0.291-0.272 0.558-0.564 0.802-0.876 0.249-0.317 0.444-0.645 0.586-0.985 0.147-0.345 0.2-0.69 0.159-1.036-0.042-0.346-0.217-0.685-0.527-1.015v0c-0.309-0.331-0.642-0.531-0.999-0.602-0.357-0.07-0.715-0.046-1.073 0.073-0.363 0.114-0.704 0.287-1.023 0.519-0.328 0.232-0.63 0.476-0.905 0.735v0c-0.266 0.248-0.53 0.528-0.793 0.84-0.273 0.311-0.48 0.642-0.623 0.991-0.133 0.35-0.177 0.705-0.131 1.066 0.046 0.361 0.229 0.712 0.547 1.052z" fill="#2257bf" data-fill-palette-color="primary"></path><path d="M155.614 51.693v0c-0.412-0.705-0.609-1.369-0.591-1.992 0.015-0.613 0.29-1.218 0.822-1.815 0.524-0.6 1.328-1.217 2.412-1.851v0l2.87-1.677c1.126-0.658 2.071-1.059 2.837-1.204 0.762-0.151 1.411-0.074 1.948 0.232 0.533 0.3 1.002 0.797 1.407 1.491v0c0.467 0.8 0.655 1.509 0.563 2.126-0.095 0.612-0.438 1.202-1.028 1.77-0.594 0.562-1.427 1.156-2.499 1.782v0l-1.022 0.597-2.68-4.586-1.981 1.158c-0.735 0.429-1.284 0.822-1.649 1.178-0.361 0.362-0.559 0.716-0.595 1.063-0.042 0.35 0.048 0.715 0.27 1.094v0c0.166 0.284 0.372 0.514 0.617 0.689 0.251 0.171 0.576 0.231 0.976 0.18 0.4-0.051 0.896-0.249 1.488-0.595v0l0.782-0.457 0.815 1.395-0.631 0.369c-1.031 0.602-1.982 0.872-2.853 0.809-0.868-0.057-1.627-0.643-2.278-1.756zM162.244 45.637l-0.773 0.452 1.854 3.172 0.942-0.55c0.604-0.353 1.101-0.687 1.489-1.002 0.388-0.314 0.633-0.644 0.733-0.988 0.103-0.354 0.018-0.765-0.255-1.234v0c-0.228-0.391-0.5-0.658-0.814-0.8-0.314-0.143-0.718-0.141-1.213 0.005-0.497 0.155-1.152 0.47-1.963 0.945z" fill="#2257bf" data-fill-palette-color="primary"></path><path d="M162.242 66.415l-0.512-1.598 12.519-4.006 0.511 1.598-1.716 0.549c0.796 0.192 1.418 0.501 1.864 0.927 0.448 0.433 0.749 0.888 0.902 1.365v0c0.015 0.046 0.028 0.088 0.04 0.128 0.015 0.046 0.025 0.1 0.031 0.163v0l-1.696 0.542c0.012-0.119 0.005-0.254-0.021-0.403-0.02-0.152-0.051-0.294-0.093-0.425v0c-0.157-0.49-0.417-0.897-0.779-1.22-0.354-0.319-0.832-0.551-1.434-0.698v0z" fill="#2257bf" data-fill-palette-color="primary"></path><path d="M4.22 115.569l-0.45-1.477 11.748-3.574 0.449 1.477-1.221 0.372c0.523 0.257 0.987 0.582 1.394 0.974 0.415 0.397 0.706 0.872 0.874 1.423v0c0.12 0.394 0.122 0.755 0.007 1.085-0.113 0.336-0.337 0.626-0.671 0.871-0.332 0.252-0.761 0.457-1.286 0.617v0l-9.433 2.87-0.453-1.487 9.109-2.771c0.611-0.186 1.013-0.408 1.206-0.668 0.194-0.26 0.233-0.577 0.12-0.951v0c-0.104-0.341-0.311-0.658-0.623-0.951-0.309-0.286-0.673-0.538-1.091-0.755v0z" fill="#2257bf" data-fill-palette-color="primary"></path><path d="M13.092 136.121v0c-0.424-0.722-0.6-1.379-0.527-1.971 0.074-0.592 0.356-1.148 0.847-1.668 0.491-0.519 1.162-1.029 2.013-1.53v0l2.937-1.727c0.852-0.501 1.624-0.839 2.316-1.015 0.692-0.176 1.315-0.152 1.869 0.071 0.553 0.224 1.042 0.697 1.467 1.418v0c0.438 0.745 0.619 1.411 0.542 1.998-0.077 0.587-0.361 1.139-0.852 1.659-0.491 0.519-1.162 1.029-2.014 1.53v0l-2.936 1.727c-0.852 0.501-1.624 0.839-2.317 1.015-0.692 0.176-1.314 0.155-1.863-0.062-0.55-0.218-1.044-0.7-1.482-1.445zM14.103 135.526v0c0.271 0.461 0.591 0.727 0.959 0.798 0.374 0.067 0.798-0.003 1.272-0.211 0.471-0.214 0.988-0.485 1.55-0.816v0l3.079-1.81c0.574-0.337 1.063-0.657 1.467-0.958 0.406-0.311 0.671-0.645 0.794-1.004 0.123-0.359 0.049-0.769-0.222-1.231v0c-0.275-0.467-0.597-0.731-0.967-0.792-0.37-0.061-0.788 0.014-1.254 0.223-0.46 0.207-0.976 0.479-1.55 0.816v0l-3.079 1.81c-0.562 0.33-1.051 0.65-1.466 0.958-0.416 0.308-0.687 0.639-0.814 0.992-0.121 0.35-0.044 0.758 0.231 1.225z" fill="#2257bf" data-fill-palette-color="primary"></path><path d="M25.633 152.341v0c-0.405-0.43-0.632-0.842-0.683-1.236-0.047-0.39 0.033-0.766 0.237-1.129 0.215-0.362 0.515-0.725 0.9-1.087v0l6.339-5.969-1.037-1.102 0.742-0.698 1.037 1.101 2.773-2.611 1.058 1.124-2.772 2.611 1.404 1.491-0.742 0.699-1.404-1.491-6.235 5.87c-0.435 0.409-0.695 0.748-0.781 1.018-0.086 0.269 0.027 0.569 0.337 0.898v0c0.085 0.09 0.191 0.188 0.319 0.294 0.128 0.106 0.251 0.197 0.371 0.273v0l-0.87 0.819c-0.176-0.127-0.349-0.265-0.519-0.416-0.17-0.151-0.328-0.304-0.474-0.459z" fill="#2257bf" data-fill-palette-color="primary"></path><path d="M39.606 164.03v0c-0.632-0.437-1.061-0.921-1.287-1.451-0.229-0.525-0.239-1.145-0.029-1.859 0.214-0.72 0.654-1.562 1.321-2.528v0l1.761-2.549c0.694-1.005 1.335-1.721 1.922-2.15 0.588-0.428 1.167-0.62 1.737-0.576 0.58 0.042 1.177 0.275 1.793 0.7v0c0.711 0.491 1.148 1.018 1.31 1.58 0.162 0.562 0.106 1.199-0.169 1.911-0.274 0.711-0.743 1.547-1.406 2.506v0l-0.625 0.906-4.091-2.825-1.217 1.761c-0.452 0.655-0.761 1.205-0.926 1.649-0.16 0.448-0.189 0.829-0.088 1.141 0.101 0.312 0.322 0.585 0.661 0.819v0c0.254 0.175 0.519 0.287 0.794 0.336 0.285 0.047 0.586-0.033 0.903-0.24 0.319-0.197 0.66-0.557 1.023-1.082v0l0.485-0.703 1.245 0.86-0.386 0.559c-0.636 0.92-1.339 1.527-2.108 1.821-0.76 0.292-1.635 0.097-2.623-0.586zM42.82 156.28l-0.468 0.678 2.829 1.954 0.579-0.839c0.37-0.536 0.658-1.013 0.863-1.43 0.199-0.421 0.273-0.8 0.221-1.136-0.052-0.336-0.286-0.648-0.704-0.936v0c-0.35-0.242-0.685-0.361-1.005-0.357-0.32 0.004-0.662 0.168-1.027 0.492-0.359 0.327-0.789 0.852-1.288 1.574z" fill="#2257bf" data-fill-palette-color="primary"></path><path d="M72.195 177.295l-1.422-0.231 1.967-12.12 1.422 0.23-0.201 1.24c0.484-0.415 0.99-0.705 1.518-0.87 0.527-0.165 1.052-0.205 1.573-0.12v0c0.42 0.068 0.788 0.243 1.104 0.524 0.323 0.282 0.513 0.737 0.571 1.364v0c0.503-0.447 1.028-0.765 1.573-0.954 0.544-0.183 1.097-0.229 1.659-0.137v0c0.345 0.056 0.664 0.195 0.954 0.415 0.284 0.22 0.491 0.549 0.622 0.987 0.13 0.438 0.139 1.006 0.026 1.704v0l-1.551 9.561-1.423-0.231 1.545-9.52c0.115-0.711 0.077-1.201-0.116-1.468-0.192-0.274-0.464-0.44-0.816-0.498v0c-0.393-0.064-0.804-0.016-1.233 0.144-0.423 0.168-0.843 0.416-1.258 0.745v0c0.001 0.077 0 0.153-0.005 0.229-0.005 0.076-0.015 0.157-0.03 0.245v0l-1.551 9.561-1.443-0.234 1.545-9.52c0.115-0.711 0.077-1.201-0.116-1.468-0.199-0.276-0.471-0.441-0.816-0.498v0c-0.379-0.062-0.784-0.012-1.213 0.147-0.423 0.168-0.841 0.409-1.254 0.725v0z" fill="#2257bf" data-fill-palette-color="primary"></path><path d="M98.856 178.758v0c-0.491 0.052-0.935-0.029-1.329-0.242-0.395-0.207-0.716-0.507-0.965-0.901-0.241-0.388-0.388-0.832-0.441-1.33v0c-0.066-0.621-0.037-1.159 0.087-1.614 0.131-0.456 0.373-0.874 0.726-1.257 0.352-0.389 0.825-0.781 1.418-1.175 0.586-0.4 1.31-0.853 2.174-1.358v0l-0.091-0.86c-0.08-0.751-0.19-1.336-0.331-1.756-0.134-0.414-0.319-0.701-0.557-0.862-0.238-0.161-0.555-0.221-0.95-0.179v0c-0.328 0.035-0.611 0.127-0.851 0.277-0.239 0.156-0.421 0.393-0.546 0.71-0.118 0.323-0.148 0.751-0.091 1.283v0l0.044 0.419-1.527 0.141c-0.117-1.237 0.048-2.182 0.496-2.836 0.455-0.655 1.266-1.045 2.433-1.169v0c1.099-0.116 1.904 0.129 2.417 0.737 0.513 0.608 0.843 1.605 0.99 2.99v0l0.629 5.937c0.022 0.212 0.058 0.48 0.106 0.806 0.049 0.333 0.096 0.645 0.141 0.937 0.045 0.292 0.086 0.515 0.123 0.671v0l-1.382 0.146c-0.056-0.263-0.128-0.559-0.218-0.888-0.089-0.322-0.151-0.581-0.186-0.777v0c-0.119 0.509-0.372 0.978-0.762 1.406-0.389 0.428-0.908 0.676-1.557 0.744zM99.199 177.397v0c0.314-0.033 0.589-0.142 0.824-0.325 0.236-0.184 0.441-0.395 0.616-0.635 0.175-0.239 0.308-0.478 0.4-0.715v0l-0.402-3.797c-0.575 0.371-1.064 0.706-1.467 1.004-0.403 0.298-0.725 0.581-0.966 0.847-0.247 0.275-0.416 0.569-0.507 0.882-0.098 0.314-0.125 0.676-0.081 1.085v0c0.069 0.648 0.261 1.094 0.576 1.336 0.309 0.25 0.645 0.356 1.007 0.318z" fill="#2257bf" data-fill-palette-color="primary"></path><path d="M118.383 174.227l-1.457 0.51-4.056-11.59 1.457-0.509 0.422 1.204c0.235-0.533 0.541-1.011 0.916-1.433 0.38-0.431 0.842-0.742 1.386-0.932v0c0.389-0.136 0.75-0.153 1.083-0.052 0.34 0.099 0.639 0.311 0.898 0.635 0.265 0.322 0.488 0.741 0.67 1.259v0l3.257 9.307-1.467 0.514-3.145-8.987c-0.211-0.602-0.45-0.995-0.717-1.177-0.267-0.183-0.586-0.209-0.955-0.08v0c-0.337 0.118-0.645 0.338-0.925 0.661-0.273 0.321-0.509 0.694-0.709 1.121v0z" fill="#2257bf" data-fill-palette-color="primary"></path><path d="M137.782 165.009v0c-0.415 0.268-0.847 0.396-1.297 0.383-0.445-0.007-0.868-0.13-1.267-0.37-0.39-0.238-0.721-0.568-0.993-0.988v0c-0.339-0.525-0.555-1.018-0.649-1.48-0.088-0.466-0.061-0.949 0.082-1.45 0.139-0.506 0.384-1.069 0.736-1.687 0.342-0.621 0.785-1.352 1.329-2.193v0l-0.469-0.726c-0.409-0.634-0.771-1.107-1.086-1.419-0.306-0.309-0.601-0.482-0.886-0.518-0.285-0.037-0.595 0.053-0.929 0.269v0c-0.277 0.179-0.488 0.389-0.635 0.63-0.143 0.247-0.198 0.54-0.167 0.879 0.041 0.341 0.206 0.737 0.496 1.187v0l0.229 0.354-1.3 0.815c-0.662-1.051-0.94-1.97-0.835-2.757 0.111-0.79 0.659-1.503 1.645-2.139v0c0.928-0.599 1.758-0.743 2.49-0.431 0.732 0.312 1.475 1.053 2.231 2.223v0l3.236 5.017c0.115 0.179 0.268 0.403 0.459 0.672 0.194 0.275 0.376 0.533 0.548 0.773 0.172 0.24 0.309 0.421 0.411 0.543v0l-1.167 0.753c-0.168-0.21-0.366-0.441-0.595-0.694-0.225-0.247-0.397-0.45-0.516-0.61v0c0.124 0.508 0.108 1.041-0.047 1.598-0.155 0.557-0.506 1.013-1.054 1.366zM137.474 163.64v0c0.265-0.171 0.462-0.392 0.589-0.662 0.128-0.27 0.216-0.552 0.264-0.844 0.048-0.292 0.06-0.565 0.035-0.819v0l-2.07-3.209c-0.346 0.591-0.631 1.11-0.857 1.558-0.226 0.448-0.386 0.845-0.48 1.192-0.097 0.356-0.115 0.695-0.055 1.015 0.054 0.324 0.193 0.66 0.416 1.006v0c0.353 0.548 0.726 0.859 1.116 0.933 0.389 0.084 0.736 0.027 1.042-0.17z" fill="#2257bf" data-fill-palette-color="primary"></path><path d="M157.233 153.665v0c-0.552 0.592-1.087 1.05-1.605 1.374-0.518 0.334-1.007 0.501-1.469 0.502-0.461 0.011-0.879-0.159-1.255-0.51v0c-0.296-0.276-0.502-0.604-0.617-0.983-0.11-0.375-0.158-0.766-0.143-1.175 0.025-0.409 0.084-0.789 0.179-1.142v0c-0.409 0.257-0.771 0.388-1.086 0.394-0.315 0.006-0.588-0.099-0.819-0.314v0c-0.311-0.29-0.501-0.645-0.569-1.065-0.073-0.425-0.091-0.934-0.053-1.527v0c-0.68 0.145-1.327 0.09-1.943-0.166-0.616-0.255-1.235-0.673-1.857-1.254v0c-0.577-0.538-1.017-1.118-1.32-1.738-0.303-0.621-0.427-1.247-0.371-1.88 0.06-0.638 0.36-1.246 0.898-1.823v0c0.491-0.527 0.988-0.838 1.49-0.933 0.497-0.1 0.973-0.082 1.429 0.052v0c-0.057-0.231-0.085-0.558-0.085-0.98 0-0.432 0.069-0.823 0.207-1.172v0l0.134-0.311 1.086 0.436c-0.124 0.194-0.235 0.428-0.332 0.703-0.092 0.28-0.165 0.554-0.219 0.824-0.059 0.264-0.075 0.488-0.05 0.671v0c0.256 0.098 0.57 0.269 0.943 0.514 0.373 0.244 0.667 0.467 0.882 0.668v0c0.592 0.552 1.054 1.129 1.386 1.729 0.327 0.605 0.46 1.217 0.399 1.836-0.061 0.609-0.378 1.22-0.949 1.831v0c-0.145 0.156-0.312 0.305-0.502 0.448-0.189 0.143-0.35 0.255-0.483 0.337v0c0.02 0.291 0.059 0.585 0.118 0.884 0.059 0.299 0.171 0.526 0.337 0.68v0c0.146 0.136 0.312 0.179 0.5 0.129 0.188-0.041 0.419-0.177 0.692-0.41v0l1.552-1.227c0.779-0.624 1.517-0.978 2.213-1.06 0.692-0.077 1.348 0.174 1.971 0.755v0c0.462 0.431 0.731 0.916 0.808 1.457 0.072 0.546-0.022 1.11-0.284 1.692-0.257 0.577-0.661 1.161-1.213 1.754zM156.357 152.763v0c0.562-0.602 0.925-1.173 1.091-1.713 0.17-0.545 0.055-1.004-0.346-1.379v0c-0.211-0.197-0.436-0.322-0.676-0.377-0.24-0.055-0.525-0.011-0.855 0.132-0.34 0.143-0.76 0.412-1.261 0.808v0l-1.232 1.004c-0.04 0.254-0.066 0.539-0.08 0.855-0.013 0.316 0.012 0.626 0.076 0.93 0.064 0.304 0.214 0.565 0.45 0.785v0c0.341 0.318 0.744 0.389 1.209 0.213 0.465-0.176 1.006-0.596 1.624-1.258zM150.704 147.461v0c0.309-0.331 0.484-0.66 0.526-0.987 0.037-0.322-0.012-0.636-0.149-0.941-0.137-0.316-0.327-0.62-0.571-0.913-0.248-0.297-0.508-0.572-0.778-0.825v0c-0.266-0.248-0.553-0.478-0.862-0.691-0.308-0.213-0.627-0.374-0.956-0.483-0.329-0.12-0.653-0.145-0.971-0.076-0.318 0.06-0.623 0.245-0.913 0.556v0c-0.29 0.311-0.456 0.635-0.498 0.971-0.047 0.332-0.004 0.663 0.129 0.994 0.133 0.321 0.316 0.627 0.549 0.92 0.238 0.288 0.485 0.551 0.741 0.79v0c0.251 0.234 0.531 0.467 0.84 0.699 0.304 0.227 0.625 0.396 0.964 0.505 0.334 0.105 0.667 0.125 1 0.06 0.333-0.065 0.649-0.258 0.949-0.579z" fill="#2257bf" data-fill-palette-color="primary"></path><path d="M167.002 134.055v0c-0.386 0.664-0.835 1.13-1.347 1.395-0.506 0.269-1.123 0.327-1.852 0.174-0.734-0.157-1.608-0.53-2.622-1.12v0l-2.679-1.557c-1.056-0.614-1.82-1.197-2.292-1.75-0.472-0.553-0.709-1.115-0.71-1.686-0.003-0.581 0.183-1.195 0.559-1.842v0c0.435-0.747 0.926-1.224 1.473-1.429 0.548-0.205 1.187-0.199 1.918 0.019 0.73 0.218 1.6 0.621 2.608 1.207v0l0.952 0.553-2.499 4.298 1.851 1.076c0.688 0.4 1.26 0.665 1.716 0.796 0.46 0.124 0.841 0.124 1.144-0.002 0.303-0.125 0.558-0.366 0.765-0.722v0c0.155-0.267 0.246-0.539 0.273-0.818 0.024-0.287-0.079-0.581-0.308-0.881-0.221-0.303-0.607-0.615-1.159-0.936v0l-0.739-0.429 0.761-1.308 0.587 0.341c0.967 0.562 1.627 1.216 1.98 1.96 0.35 0.735 0.224 1.622-0.38 2.661zM159.025 131.453l0.712 0.414 1.728-2.972-0.881-0.512c-0.564-0.328-1.061-0.577-1.493-0.749-0.435-0.166-0.818-0.21-1.149-0.133-0.331 0.078-0.624 0.336-0.879 0.775v0c-0.214 0.368-0.306 0.711-0.277 1.03 0.029 0.319 0.219 0.647 0.569 0.986 0.354 0.333 0.911 0.72 1.67 1.161z" fill="#2257bf" data-fill-palette-color="primary"></path><path d="M174.433 116.433l-0.475 1.501-11.708-3.702 0.475-1.501 1.599 0.505c-0.504-0.569-0.809-1.141-0.915-1.714-0.109-0.567-0.093-1.073 0.048-1.518v0c0.012-0.039 0.026-0.082 0.041-0.127 0.012-0.039 0.033-0.083 0.063-0.131v0l1.58 0.499c-0.075 0.077-0.144 0.181-0.207 0.313-0.063 0.131-0.113 0.256-0.151 0.373v0c-0.145 0.458-0.168 0.908-0.07 1.349 0.098 0.441 0.338 0.877 0.72 1.307v0z" fill="#2257bf" data-fill-palette-color="primary"></path><path d="M0.013 89.618c0-3.631 2.943-6.574 6.574-6.574 3.631 0 6.574 2.943 6.574 6.574 0 3.631-2.943 6.574-6.574 6.574-3.631 0-6.574-2.943-6.574-6.574z" fill="#2257bf" data-fill-palette-color="primary"></path><path d="M165.727 89.618c0-3.631 2.943-6.574 6.574-6.574 3.631 0 6.574 2.943 6.574 6.574 0 3.631-2.943 6.574-6.574 6.574-3.631 0-6.574-2.943-6.574-6.574z" fill="#2257bf" data-fill-palette-color="primary"></path></g><g id="text-1"></g></svg></g><g transform="matrix(1,0,0,1,34.167531600000004,189.22056000000003)"><svg viewBox="0 0 110.55253680000001 10.145533616352335" height="10.145533616352335" width="110.55253680000001"><g transform="matrix(1,0,0,1,0,0)"><svg width="110.55253680000001" viewBox="4.35 -32.8 474.51 43.55" height="10.145533616352335" data-palette-color="#2257bf"><path d="M5.75 0L4.35 0 4.35-25 5.65-25 5.7-18.85Q6.6-21.8 9.3-23.65 12-25.5 15.65-25.5L15.65-25.5Q19.3-25.5 21.7-23.7 24.1-21.9 24.7-18.55L24.7-18.55Q25.25-20.6 26.7-22.18 28.15-23.75 30.28-24.68 32.4-25.6 34.9-25.6L34.9-25.6Q37.7-25.6 39.78-24.53 41.85-23.45 43.05-21.43 44.25-19.4 44.25-16.45L44.25-16.45 44.25-0.1 42.85-0.1 42.85-16.3Q42.85-20.2 40.63-22.28 38.4-24.35 34.7-24.35L34.7-24.35Q31.95-24.35 29.75-23.08 27.55-21.8 26.28-19.65 25-17.5 25-14.9L25-14.9 25 0 23.6 0 23.6-16.2Q23.6-20.1 21.38-22.2 19.15-24.3 15.45-24.3L15.45-24.3Q12.8-24.3 10.58-23.03 8.35-21.75 7.05-19.6 5.75-17.45 5.75-14.75L5.75-14.75 5.75 0ZM70.1-25L71.6-25 59.3 4.9Q58.4 7.1 57.4 8.38 56.4 9.65 55.15 10.2 53.9 10.75 52.35 10.75L52.35 10.75Q50.95 10.75 49.85 10.33 48.75 9.9 48.1 9.1L48.1 9.1 48.65 7.95Q49.3 8.8 50.27 9.15 51.25 9.5 52.35 9.5L52.35 9.5Q54.15 9.5 55.5 8.5 56.85 7.5 58.05 4.6L58.05 4.6 59.95 0.05 57.2-6.35 49.3-25 50.9-25 59.6-4.05 60.6-1.55 61.65-4.2 70.1-25ZM107.39-8.45L107.39-16.7Q107.39-20.2 105.44-22.25 103.49-24.3 99.84-24.3L99.84-24.3Q96.79-24.3 94.57-22.95 92.34-21.6 91.24-18.6L91.24-18.6 90.14-19.35Q91.24-22.4 93.77-23.95 96.29-25.5 99.89-25.5L99.89-25.5Q102.64-25.5 104.64-24.5 106.64-23.5 107.72-21.55 108.79-19.6 108.79-16.85L108.79-16.85 108.79-4.1Q108.79-0.8 111.54-0.8L111.54-0.8Q112.59-0.8 113.29-1.2L113.29-1.2 113.19-0.05Q112.44 0.4 111.24 0.4L111.24 0.4Q110.34 0.4 109.44 0 108.54-0.4 107.97-1.4 107.39-2.4 107.39-4.3L107.39-4.3 107.39-6.25 107.84-6.45Q107.44-4.1 105.89-2.55 104.34-1 102.19-0.25 100.04 0.5 97.84 0.5L97.84 0.5Q95.39 0.5 93.59-0.23 91.79-0.95 90.79-2.35 89.79-3.75 89.79-5.75L89.79-5.75Q89.79-8.55 91.67-10.18 93.54-11.8 96.99-12.45L96.99-12.45 107.64-14.55 107.64-13.35 97.79-11.4Q94.49-10.8 92.87-9.43 91.24-8.05 91.24-5.85L91.24-5.85Q91.24-3.4 92.99-2.08 94.74-0.75 98.04-0.75L98.04-0.75Q99.54-0.75 101.14-1.18 102.74-1.6 104.19-2.53 105.64-3.45 106.52-4.93 107.39-6.4 107.39-8.45L107.39-8.45ZM118.54-29.9L118.54-29.9Q117.89-29.9 117.49-30.3 117.09-30.7 117.09-31.35L117.09-31.35Q117.09-32 117.49-32.4 117.89-32.8 118.59-32.8L118.59-32.8Q119.24-32.8 119.64-32.4 120.04-32 120.04-31.35L120.04-31.35Q120.04-30.7 119.64-30.3 119.24-29.9 118.54-29.9ZM117.89-25L119.29-25 119.29 0 117.89 0 117.89-25ZM143.94 0L142.53 0 142.53-25 143.84-25 143.88-18.25 143.74-18.5Q144.34-20.55 145.76-22.15 147.19-23.75 149.26-24.63 151.34-25.5 153.88-25.5L153.88-25.5Q156.74-25.5 158.84-24.43 160.94-23.35 162.11-21.35 163.28-19.35 163.28-16.35L163.28-16.35 163.28 0 161.88 0 161.88-16Q161.88-20.05 159.66-22.18 157.44-24.3 153.69-24.3L153.69-24.3Q150.99-24.3 148.76-23.03 146.53-21.75 145.24-19.6 143.94-17.45 143.94-14.7L143.94-14.7 143.94 0ZM181.63-25.5L181.63-25.5Q185.13-25.5 187.78-23.95 190.43-22.4 191.93-19.48 193.43-16.55 193.43-12.5L193.43-12.5Q193.43-8.45 191.93-5.53 190.43-2.6 187.78-1.05 185.13 0.5 181.63 0.5L181.63 0.5Q178.23 0.5 175.58-1.05 172.93-2.6 171.41-5.53 169.88-8.45 169.88-12.5L169.88-12.5Q169.88-16.55 171.41-19.48 172.93-22.4 175.58-23.95 178.23-25.5 181.63-25.5ZM181.68-24.3L181.68-24.3Q178.58-24.3 176.26-22.88 173.93-21.45 172.61-18.82 171.28-16.2 171.28-12.5L171.28-12.5Q171.28-8.85 172.61-6.2 173.93-3.55 176.26-2.13 178.58-0.7 181.68-0.7L181.68-0.7Q184.73-0.7 187.08-2.13 189.43-3.55 190.73-6.2 192.03-8.85 192.03-12.5L192.03-12.5Q192.03-16.2 190.73-18.82 189.43-21.45 187.08-22.88 184.73-24.3 181.68-24.3ZM201.78-31.4L203.18-31.8 203.18-6.4Q203.18-3.65 204.38-2.2 205.58-0.75 208.08-0.75L208.08-0.75Q209.43-0.75 210.53-1.23 211.63-1.7 212.48-2.6L212.48-2.6 213.08-1.45Q212.28-0.6 210.93-0.05 209.58 0.5 207.98 0.5L207.98 0.5Q206.03 0.5 204.6-0.25 203.18-1 202.48-2.53 201.78-4.05 201.78-6.3L201.78-6.3 201.78-31.4ZM196.78-25L212.73-25 212.73-23.8 196.78-23.8 196.78-25ZM227.68 0.5L227.68 0.5Q224.33 0.5 221.68-1.05 219.03-2.6 217.48-5.53 215.93-8.45 215.93-12.5L215.93-12.5Q215.93-16.6 217.45-19.5 218.98-22.4 221.53-23.95 224.08-25.5 227.28-25.5L227.28-25.5Q230.63-25.5 233-24 235.38-22.5 236.65-19.78 237.93-17.05 237.93-13.3L237.93-13.3Q237.93-13.1 237.93-12.88 237.93-12.65 237.88-12.5L237.88-12.5 216.78-12.5 216.78-13.75 237.28-13.75 236.63-13.45Q236.58-18.3 234.15-21.3 231.73-24.3 227.28-24.3L227.28-24.3Q224.43-24.3 222.18-22.88 219.93-21.45 218.63-18.82 217.33-16.2 217.33-12.5L217.33-12.5Q217.33-8.8 218.65-6.18 219.98-3.55 222.3-2.15 224.63-0.75 227.63-0.75L227.63-0.75Q230.63-0.75 232.98-2.15 235.33-3.55 236.58-6L236.58-6 237.68-5.4Q236.83-3.55 235.33-2.25 233.83-0.95 231.88-0.23 229.93 0.5 227.68 0.5ZM252.73 0.5L252.73 0.5Q248.88 0.5 246.05-1.03 243.23-2.55 242.33-5.55L242.33-5.55 243.58-6.3Q244.33-3.55 246.8-2.15 249.28-0.75 252.93-0.75L252.93-0.75Q256.68-0.75 258.85-2.25 261.03-3.75 261.03-6.3L261.03-6.3Q261.03-8.05 259.9-9.28 258.78-10.5 255.73-11.1L255.73-11.1 249.98-12.35Q246.48-13.1 244.98-14.73 243.48-16.35 243.48-18.55L243.48-18.55Q243.48-20.55 244.68-22.1 245.88-23.65 248-24.58 250.13-25.5 252.83-25.5L252.83-25.5Q256.63-25.5 259.03-24 261.43-22.5 262.23-19.4L262.23-19.4 261.03-18.65Q260.32-21.6 258.2-22.95 256.07-24.3 252.83-24.3L252.83-24.3Q250.48-24.3 248.7-23.58 246.93-22.85 245.9-21.6 244.88-20.35 244.88-18.75L244.88-18.75Q244.88-17 246.05-15.68 247.23-14.35 250.13-13.7L250.13-13.7 256.03-12.4Q259.57-11.6 261-10.13 262.43-8.65 262.43-6.4L262.43-6.4Q262.43-4.3 261.23-2.73 260.03-1.15 257.85-0.33 255.68 0.5 252.73 0.5ZM285.17 0L283.77 0 283.77-25 285.07-25 285.12-18.85Q286.02-21.8 288.72-23.65 291.42-25.5 295.07-25.5L295.07-25.5Q298.72-25.5 301.12-23.7 303.52-21.9 304.12-18.55L304.12-18.55Q304.67-20.6 306.12-22.18 307.57-23.75 309.69-24.68 311.82-25.6 314.32-25.6L314.32-25.6Q317.12-25.6 319.2-24.53 321.27-23.45 322.47-21.43 323.67-19.4 323.67-16.45L323.67-16.45 323.67-0.1 322.27-0.1 322.27-16.3Q322.27-20.2 320.05-22.28 317.82-24.35 314.12-24.35L314.12-24.35Q311.37-24.35 309.17-23.08 306.97-21.8 305.69-19.65 304.42-17.5 304.42-14.9L304.42-14.9 304.42 0 303.02 0 303.02-16.2Q303.02-20.1 300.8-22.2 298.57-24.3 294.87-24.3L294.87-24.3Q292.22-24.3 290-23.03 287.77-21.75 286.47-19.6 285.17-17.45 285.17-14.75L285.17-14.75 285.17 0ZM347.82-8.45L347.82-16.7Q347.82-20.2 345.87-22.25 343.92-24.3 340.27-24.3L340.27-24.3Q337.22-24.3 334.99-22.95 332.77-21.6 331.67-18.6L331.67-18.6 330.57-19.35Q331.67-22.4 334.19-23.95 336.72-25.5 340.32-25.5L340.32-25.5Q343.07-25.5 345.07-24.5 347.07-23.5 348.14-21.55 349.22-19.6 349.22-16.85L349.22-16.85 349.22-4.1Q349.22-0.8 351.97-0.8L351.97-0.8Q353.02-0.8 353.72-1.2L353.72-1.2 353.62-0.05Q352.87 0.4 351.67 0.4L351.67 0.4Q350.77 0.4 349.87 0 348.97-0.4 348.39-1.4 347.82-2.4 347.82-4.3L347.82-4.3 347.82-6.25 348.27-6.45Q347.87-4.1 346.32-2.55 344.77-1 342.62-0.25 340.47 0.5 338.27 0.5L338.27 0.5Q335.82 0.5 334.02-0.23 332.22-0.95 331.22-2.35 330.22-3.75 330.22-5.75L330.22-5.75Q330.22-8.55 332.09-10.18 333.97-11.8 337.42-12.45L337.42-12.45 348.07-14.55 348.07-13.35 338.22-11.4Q334.92-10.8 333.29-9.43 331.67-8.05 331.67-5.85L331.67-5.85Q331.67-3.4 333.42-2.08 335.17-0.75 338.47-0.75L338.47-0.75Q339.97-0.75 341.57-1.18 343.17-1.6 344.62-2.53 346.07-3.45 346.94-4.93 347.82-6.4 347.82-8.45L347.82-8.45ZM359.72 0L358.32 0 358.32-25 359.62-25 359.67-18.25 359.52-18.5Q360.12-20.55 361.54-22.15 362.97-23.75 365.04-24.63 367.12-25.5 369.67-25.5L369.67-25.5Q372.52-25.5 374.62-24.43 376.72-23.35 377.89-21.35 379.07-19.35 379.07-16.35L379.07-16.35 379.07 0 377.67 0 377.67-16Q377.67-20.05 375.44-22.18 373.22-24.3 369.47-24.3L369.47-24.3Q366.77-24.3 364.54-23.03 362.32-21.75 361.02-19.6 359.72-17.45 359.72-14.7L359.72-14.7 359.72 0ZM403.21-8.45L403.21-16.7Q403.21-20.2 401.26-22.25 399.31-24.3 395.66-24.3L395.66-24.3Q392.61-24.3 390.39-22.95 388.16-21.6 387.06-18.6L387.06-18.6 385.96-19.35Q387.06-22.4 389.59-23.95 392.11-25.5 395.71-25.5L395.71-25.5Q398.46-25.5 400.46-24.5 402.46-23.5 403.54-21.55 404.61-19.6 404.61-16.85L404.61-16.85 404.61-4.1Q404.61-0.8 407.36-0.8L407.36-0.8Q408.41-0.8 409.11-1.2L409.11-1.2 409.01-0.05Q408.26 0.4 407.06 0.4L407.06 0.4Q406.16 0.4 405.26 0 404.36-0.4 403.79-1.4 403.21-2.4 403.21-4.3L403.21-4.3 403.21-6.25 403.66-6.45Q403.26-4.1 401.71-2.55 400.16-1 398.01-0.25 395.86 0.5 393.66 0.5L393.66 0.5Q391.21 0.5 389.41-0.23 387.61-0.95 386.61-2.35 385.61-3.75 385.61-5.75L385.61-5.75Q385.61-8.55 387.49-10.18 389.36-11.8 392.81-12.45L392.81-12.45 403.46-14.55 403.46-13.35 393.61-11.4Q390.31-10.8 388.69-9.43 387.06-8.05 387.06-5.85L387.06-5.85Q387.06-3.4 388.81-2.08 390.56-0.75 393.86-0.75L393.86-0.75Q395.36-0.75 396.96-1.18 398.56-1.6 400.01-2.53 401.46-3.45 402.34-4.93 403.21-6.4 403.21-8.45L403.21-8.45ZM434.11-29.6L434.11-29.6 434.51-28.35Q434.46-28.35 434.41-28.35 434.36-28.35 434.31-28.35L434.31-28.35Q431.86-28.35 430.56-26.9 429.26-25.45 429.26-23L429.26-23 428.26-23.45Q428.26-25.3 428.99-26.68 429.71-28.05 430.99-28.83 432.26-29.6 433.96-29.6L433.96-29.6Q434.06-29.6 434.06-29.6 434.06-29.6 434.11-29.6ZM419.61-2.1L426.01-2.1Q429.81-2.1 431.99-0.58 434.16 0.95 434.16 3.5L434.16 3.5Q434.16 5.65 432.69 7.28 431.21 8.9 428.61 9.83 426.01 10.75 422.61 10.75L422.61 10.75Q417.16 10.75 414.11 8.88 411.06 7 411.06 4.05L411.06 4.05Q411.06 1.85 412.71 0.3 414.36-1.25 417.21-1.55L417.21-1.55 417.11-1.35Q415.56-1.75 414.31-2.8 413.06-3.85 413.06-5.75L413.06-5.75Q413.06-7.85 414.66-9.1 416.26-10.35 418.66-10.4L418.66-10.4 421.21-9.85 419.81-9.85Q417.56-9.8 415.99-8.83 414.41-7.85 414.41-5.95L414.41-5.95Q414.41-4 415.94-3.05 417.46-2.1 419.61-2.1L419.61-2.1ZM422.71 9.55L422.71 9.55Q425.66 9.55 427.94 8.8 430.21 8.05 431.51 6.7 432.81 5.35 432.81 3.65L432.81 3.65Q432.81 1.6 430.94 0.35 429.06-0.9 425.76-0.9L425.76-0.9 419.11-0.9Q416.21-0.9 414.31 0.43 412.41 1.75 412.41 3.85L412.41 3.85Q412.41 6.4 415.16 7.98 417.91 9.55 422.71 9.55ZM422.31-25.5L422.31-25.5Q425.26-25.5 427.49-24.5 429.71-23.5 430.96-21.73 432.21-19.95 432.21-17.55L432.21-17.55Q432.21-15.15 430.96-13.35 429.71-11.55 427.49-10.58 425.26-9.6 422.31-9.6L422.31-9.6Q417.76-9.6 415.06-11.78 412.36-13.95 412.36-17.55L412.36-17.55Q412.36-19.95 413.59-21.73 414.81-23.5 417.09-24.5 419.36-25.5 422.31-25.5ZM422.31-24.3L422.31-24.3Q418.51-24.3 416.14-22.45 413.76-20.6 413.76-17.55L413.76-17.55Q413.76-14.5 416.14-12.63 418.51-10.75 422.31-10.75L422.31-10.75Q426.11-10.75 428.44-12.63 430.76-14.5 430.76-17.55L430.76-17.55Q430.76-20.6 428.44-22.45 426.11-24.3 422.31-24.3ZM448.86 0.5L448.86 0.5Q445.51 0.5 442.86-1.05 440.21-2.6 438.66-5.53 437.11-8.45 437.11-12.5L437.11-12.5Q437.11-16.6 438.63-19.5 440.16-22.4 442.71-23.95 445.26-25.5 448.46-25.5L448.46-25.5Q451.81-25.5 454.18-24 456.56-22.5 457.83-19.78 459.11-17.05 459.11-13.3L459.11-13.3Q459.11-13.1 459.11-12.88 459.11-12.65 459.06-12.5L459.06-12.5 437.96-12.5 437.96-13.75 458.46-13.75 457.81-13.45Q457.76-18.3 455.33-21.3 452.91-24.3 448.46-24.3L448.46-24.3Q445.61-24.3 443.36-22.88 441.11-21.45 439.81-18.82 438.51-16.2 438.51-12.5L438.51-12.5Q438.51-8.8 439.83-6.18 441.16-3.55 443.48-2.15 445.81-0.75 448.81-0.75L448.81-0.75Q451.81-0.75 454.16-2.15 456.51-3.55 457.76-6L457.76-6 458.86-5.4Q458.01-3.55 456.51-2.25 455.01-0.95 453.06-0.23 451.11 0.5 448.86 0.5ZM467.36 0L465.96 0 465.96-25 467.21-25 467.31-18.95Q468.21-21.8 470.33-23.65 472.46-25.5 475.46-25.5L475.46-25.5Q476.66-25.5 477.51-25.23 478.36-24.95 478.86-24.45L478.86-24.45 478.36-23.25Q477.86-23.7 477.21-23.98 476.56-24.25 475.21-24.25L475.21-24.25Q473.01-24.25 471.23-22.88 469.46-21.5 468.41-19.25 467.36-17 467.36-14.35L467.36-14.35 467.36 0Z" opacity="1" transform="matrix(1,0,0,1,0,0)" fill="#2257bf" class="slogan-text-1" data-fill-palette-color="secondary" id="text-1"></path></svg></g></svg></g></svg></g></svg></g><g></g></svg></g></svg></g></svg></g><defs></defs></svg><rect width="320" height="360" fill="none" stroke="none" visibility="hidden"></rect></g></svg></g></svg>